<mxfile host="app.diagrams.net" modified="2024-06-27T11:36:58.114Z" agent="Mozilla/5.0 (X11; Linux x86_64) AppleWebKit/537.36 (KHTML, like Gecko) Chrome/126.0.0.0 Safari/537.36" etag="gP_DTlp6sPZdo1mbnTFQ" version="24.5.5" type="device">
  <diagram name="Page-1" id="9lc8c0lHKOUZnU-4FyNS">
    <mxGraphModel dx="2301" dy="1447" grid="1" gridSize="10" guides="1" tooltips="1" connect="1" arrows="1" fold="1" page="1" pageScale="1" pageWidth="850" pageHeight="1100" background="#ffffff" math="0" shadow="0">
      <root>
        <mxCell id="0" />
        <mxCell id="1" parent="0" />
        <mxCell id="G9gYJNh-_6hGKrOHPz0n-23" value="&lt;u style=&quot;font-size: 20px;&quot;&gt;Vendor Gems&lt;/u&gt;" style="rounded=0;whiteSpace=wrap;html=1;verticalAlign=top;dashed=1;dashPattern=8 8;" vertex="1" parent="1">
          <mxGeometry x="520" y="880" width="360" height="300" as="geometry" />
        </mxCell>
        <mxCell id="G9gYJNh-_6hGKrOHPz0n-22" value="&lt;u style=&quot;forced-color-adjust: none; color: rgb(0, 0, 0); font-family: Helvetica; font-style: normal; font-variant-ligatures: normal; font-variant-caps: normal; font-weight: 400; letter-spacing: normal; orphans: 2; text-align: center; text-indent: 0px; text-transform: none; widows: 2; word-spacing: 0px; -webkit-text-stroke-width: 0px; white-space: normal; background-color: rgb(251, 251, 251); font-size: 20px;&quot;&gt;Feature Gems&lt;br style=&quot;forced-color-adjust: none;&quot;&gt;&lt;/u&gt;&lt;font style=&quot;forced-color-adjust: none; color: rgb(0, 0, 0); font-family: Helvetica; font-style: normal; font-variant-ligatures: normal; font-variant-caps: normal; font-weight: 400; letter-spacing: normal; orphans: 2; text-align: center; text-indent: 0px; text-transform: none; widows: 2; word-spacing: 0px; -webkit-text-stroke-width: 0px; white-space: normal; background-color: rgb(251, 251, 251); text-decoration-thickness: initial; text-decoration-style: initial; text-decoration-color: initial; font-size: 15px;&quot;&gt;(edit time, runtime, both)&lt;/font&gt;" style="rounded=0;whiteSpace=wrap;html=1;verticalAlign=top;dashed=1;dashPattern=8 8;" vertex="1" parent="1">
          <mxGeometry x="40" y="880" width="360" height="300" as="geometry" />
        </mxCell>
        <mxCell id="j06E-8KvQfreE3FbZCGw-30" value="&lt;u&gt;&lt;b&gt;AI Agent&lt;/b&gt;&lt;/u&gt;:&lt;div&gt;AIAgentBus::Handler&lt;/div&gt;" style="rounded=1;whiteSpace=wrap;html=1;labelBackgroundColor=none;" parent="1" vertex="1">
          <mxGeometry x="880" y="90" width="240" height="60" as="geometry" />
        </mxCell>
        <mxCell id="j06E-8KvQfreE3FbZCGw-39" value="&lt;u&gt;&lt;b&gt;Feature&lt;/b&gt;&lt;/u&gt;:&lt;div&gt;ConversationNotificationBus::Handler&lt;/div&gt;&lt;div&gt;AIAgentNotificationBus::Handler&lt;/div&gt;" style="rounded=1;whiteSpace=wrap;html=1;labelBackgroundColor=none;" parent="1" vertex="1">
          <mxGeometry x="480" y="90" width="240" height="60" as="geometry" />
        </mxCell>
        <mxCell id="j06E-8KvQfreE3FbZCGw-44" value="&lt;u&gt;&lt;b&gt;Conversation&lt;/b&gt;&lt;/u&gt;:&lt;div&gt;&lt;div&gt;ConversationNotificationBus::Handler&lt;/div&gt;&lt;/div&gt;" style="rounded=1;whiteSpace=wrap;html=1;labelBackgroundColor=none;" parent="1" vertex="1">
          <mxGeometry x="80" y="90" width="240" height="60" as="geometry" />
        </mxCell>
        <mxCell id="j06E-8KvQfreE3FbZCGw-45" value="" style="endArrow=classic;html=1;rounded=0;exitX=1;exitY=0.25;exitDx=0;exitDy=0;entryX=0;entryY=0.25;entryDx=0;entryDy=0;strokeWidth=5;labelBackgroundColor=none;fontColor=default;" parent="1" source="j06E-8KvQfreE3FbZCGw-44" target="j06E-8KvQfreE3FbZCGw-39" edge="1">
          <mxGeometry width="50" height="50" relative="1" as="geometry">
            <mxPoint x="570" y="200" as="sourcePoint" />
            <mxPoint x="620" y="150" as="targetPoint" />
            <mxPoint as="offset" />
          </mxGeometry>
        </mxCell>
        <mxCell id="j06E-8KvQfreE3FbZCGw-48" value="" style="endArrow=classic;html=1;rounded=0;exitX=0;exitY=0.75;exitDx=0;exitDy=0;entryX=1;entryY=0.75;entryDx=0;entryDy=0;strokeWidth=5;labelBackgroundColor=none;fontColor=default;" parent="1" source="j06E-8KvQfreE3FbZCGw-39" target="j06E-8KvQfreE3FbZCGw-44" edge="1">
          <mxGeometry width="50" height="50" relative="1" as="geometry">
            <mxPoint x="610" y="270" as="sourcePoint" />
            <mxPoint x="660" y="220" as="targetPoint" />
          </mxGeometry>
        </mxCell>
        <mxCell id="j06E-8KvQfreE3FbZCGw-49" value="" style="endArrow=classic;html=1;rounded=0;exitX=1;exitY=0.25;exitDx=0;exitDy=0;entryX=0;entryY=0.25;entryDx=0;entryDy=0;strokeWidth=5;labelBackgroundColor=none;fontColor=default;" parent="1" source="j06E-8KvQfreE3FbZCGw-39" target="j06E-8KvQfreE3FbZCGw-30" edge="1">
          <mxGeometry width="50" height="50" relative="1" as="geometry">
            <mxPoint x="610" y="270" as="sourcePoint" />
            <mxPoint x="660" y="220" as="targetPoint" />
          </mxGeometry>
        </mxCell>
        <mxCell id="j06E-8KvQfreE3FbZCGw-51" value="" style="endArrow=classic;html=1;rounded=0;exitX=0;exitY=0.75;exitDx=0;exitDy=0;entryX=1;entryY=0.75;entryDx=0;entryDy=0;strokeWidth=5;labelBackgroundColor=none;fontColor=default;" parent="1" source="j06E-8KvQfreE3FbZCGw-30" target="j06E-8KvQfreE3FbZCGw-39" edge="1">
          <mxGeometry width="50" height="50" relative="1" as="geometry">
            <mxPoint x="710" y="440" as="sourcePoint" />
            <mxPoint x="760" y="390" as="targetPoint" />
            <Array as="points" />
          </mxGeometry>
        </mxCell>
        <mxCell id="j06E-8KvQfreE3FbZCGw-55" value="&lt;font style=&quot;font-size: 24px;&quot;&gt;O3DE&lt;/font&gt;" style="rounded=0;whiteSpace=wrap;html=1;verticalAlign=top;labelBackgroundColor=none;" parent="1" vertex="1">
          <mxGeometry x="40" y="240" width="260" height="300" as="geometry" />
        </mxCell>
        <mxCell id="j06E-8KvQfreE3FbZCGw-56" value="AI Chat Widget" style="shape=callout;whiteSpace=wrap;html=1;perimeter=calloutPerimeter;rounded=1;comic=0;align=center;verticalAlign=top;fontSize=16;labelBackgroundColor=none;" parent="1" vertex="1">
          <mxGeometry x="60" y="290" width="220" height="150" as="geometry" />
        </mxCell>
        <mxCell id="j06E-8KvQfreE3FbZCGw-57" value="&lt;font style=&quot;font-size: 24px;&quot;&gt;Feature&lt;/font&gt;" style="rounded=0;whiteSpace=wrap;html=1;verticalAlign=top;labelBackgroundColor=none;" parent="1" vertex="1">
          <mxGeometry x="340" y="240" width="260" height="300" as="geometry" />
        </mxCell>
        <mxCell id="j06E-8KvQfreE3FbZCGw-58" value="&lt;font style=&quot;font-size: 24px;&quot;&gt;AI Agent&lt;/font&gt;" style="rounded=0;whiteSpace=wrap;html=1;verticalAlign=top;labelBackgroundColor=none;" parent="1" vertex="1">
          <mxGeometry x="640" y="240" width="260" height="300" as="geometry" />
        </mxCell>
        <mxCell id="j06E-8KvQfreE3FbZCGw-59" value="AI Model" style="rounded=1;whiteSpace=wrap;html=1;fontSize=16;labelBackgroundColor=none;" parent="1" vertex="1">
          <mxGeometry x="680" y="320" width="180" height="60" as="geometry" />
        </mxCell>
        <mxCell id="j06E-8KvQfreE3FbZCGw-60" value="AI Service Provider" style="rounded=1;whiteSpace=wrap;html=1;fontSize=16;labelBackgroundColor=none;" parent="1" vertex="1">
          <mxGeometry x="680" y="460" width="180" height="60" as="geometry" />
        </mxCell>
        <mxCell id="j06E-8KvQfreE3FbZCGw-61" value="&lt;font style=&quot;font-size: 16px;&quot;&gt;Cloud&lt;/font&gt;" style="ellipse;shape=cloud;whiteSpace=wrap;html=1;fontSize=16;labelBackgroundColor=none;" parent="1" vertex="1">
          <mxGeometry x="920" y="330" width="260" height="220" as="geometry" />
        </mxCell>
        <mxCell id="j06E-8KvQfreE3FbZCGw-62" value="O3DE API" style="rounded=1;whiteSpace=wrap;html=1;fontSize=16;labelBackgroundColor=none;" parent="1" vertex="1">
          <mxGeometry x="80" y="460" width="180" height="60" as="geometry" />
        </mxCell>
        <mxCell id="j06E-8KvQfreE3FbZCGw-63" value="Feature interface" style="rounded=1;whiteSpace=wrap;html=1;fontSize=16;labelBackgroundColor=none;" parent="1" vertex="1">
          <mxGeometry x="380" y="320" width="180" height="60" as="geometry" />
        </mxCell>
        <mxCell id="j06E-8KvQfreE3FbZCGw-64" value="Feature tool" style="rounded=1;whiteSpace=wrap;html=1;fontSize=16;labelBackgroundColor=none;" parent="1" vertex="1">
          <mxGeometry x="380" y="460" width="180" height="60" as="geometry" />
        </mxCell>
        <mxCell id="j06E-8KvQfreE3FbZCGw-65" value="B" style="endArrow=classic;html=1;rounded=0;exitX=0.25;exitY=1;exitDx=0;exitDy=0;entryX=0.25;entryY=0;entryDx=0;entryDy=0;fontSize=16;labelBackgroundColor=none;fontColor=default;" parent="1" source="j06E-8KvQfreE3FbZCGw-63" target="j06E-8KvQfreE3FbZCGw-64" edge="1">
          <mxGeometry width="50" height="50" relative="1" as="geometry">
            <mxPoint x="780" y="140" as="sourcePoint" />
            <mxPoint x="830" y="90" as="targetPoint" />
          </mxGeometry>
        </mxCell>
        <mxCell id="j06E-8KvQfreE3FbZCGw-66" value="C" style="endArrow=classic;html=1;rounded=0;entryX=1;entryY=0.25;entryDx=0;entryDy=0;exitX=0;exitY=0.25;exitDx=0;exitDy=0;fontSize=16;labelBackgroundColor=none;fontColor=default;" parent="1" source="j06E-8KvQfreE3FbZCGw-64" target="j06E-8KvQfreE3FbZCGw-62" edge="1">
          <mxGeometry width="50" height="50" relative="1" as="geometry">
            <mxPoint x="480" y="480" as="sourcePoint" />
            <mxPoint x="430" y="440" as="targetPoint" />
          </mxGeometry>
        </mxCell>
        <mxCell id="j06E-8KvQfreE3FbZCGw-67" value="Conversation" style="rounded=1;whiteSpace=wrap;html=1;fontSize=16;labelBackgroundColor=none;" parent="1" vertex="1">
          <mxGeometry x="80" y="320" width="180" height="60" as="geometry" />
        </mxCell>
        <mxCell id="j06E-8KvQfreE3FbZCGw-68" value="A" style="endArrow=classic;html=1;rounded=0;exitX=1;exitY=0.25;exitDx=0;exitDy=0;entryX=0;entryY=0.25;entryDx=0;entryDy=0;strokeWidth=4;fontSize=16;labelBackgroundColor=none;fontColor=default;" parent="1" source="j06E-8KvQfreE3FbZCGw-67" target="j06E-8KvQfreE3FbZCGw-63" edge="1">
          <mxGeometry width="50" height="50" relative="1" as="geometry">
            <mxPoint x="570" y="430" as="sourcePoint" />
            <mxPoint x="620" y="380" as="targetPoint" />
          </mxGeometry>
        </mxCell>
        <mxCell id="j06E-8KvQfreE3FbZCGw-69" value="D" style="endArrow=classic;html=1;rounded=0;exitX=1;exitY=0.75;exitDx=0;exitDy=0;entryX=0;entryY=0.75;entryDx=0;entryDy=0;fontSize=16;labelBackgroundColor=none;fontColor=default;" parent="1" source="j06E-8KvQfreE3FbZCGw-62" target="j06E-8KvQfreE3FbZCGw-64" edge="1">
          <mxGeometry width="50" height="50" relative="1" as="geometry">
            <mxPoint x="570" y="430" as="sourcePoint" />
            <mxPoint x="620" y="380" as="targetPoint" />
          </mxGeometry>
        </mxCell>
        <mxCell id="j06E-8KvQfreE3FbZCGw-70" value="E" style="endArrow=classic;html=1;rounded=0;exitX=0.75;exitY=0;exitDx=0;exitDy=0;entryX=0.75;entryY=1;entryDx=0;entryDy=0;fontSize=16;labelBackgroundColor=none;fontColor=default;" parent="1" source="j06E-8KvQfreE3FbZCGw-64" target="j06E-8KvQfreE3FbZCGw-63" edge="1">
          <mxGeometry width="50" height="50" relative="1" as="geometry">
            <mxPoint x="500" y="430" as="sourcePoint" />
            <mxPoint x="550" y="380" as="targetPoint" />
          </mxGeometry>
        </mxCell>
        <mxCell id="j06E-8KvQfreE3FbZCGw-71" value="L" style="endArrow=classic;html=1;rounded=0;exitX=0;exitY=0.75;exitDx=0;exitDy=0;entryX=1;entryY=0.75;entryDx=0;entryDy=0;strokeWidth=4;fontSize=16;labelBackgroundColor=none;fontColor=default;" parent="1" source="j06E-8KvQfreE3FbZCGw-63" target="j06E-8KvQfreE3FbZCGw-67" edge="1">
          <mxGeometry width="50" height="50" relative="1" as="geometry">
            <mxPoint x="610" y="500" as="sourcePoint" />
            <mxPoint x="660" y="450" as="targetPoint" />
          </mxGeometry>
        </mxCell>
        <mxCell id="j06E-8KvQfreE3FbZCGw-72" value="F" style="endArrow=classic;html=1;rounded=0;exitX=1;exitY=0.25;exitDx=0;exitDy=0;entryX=0;entryY=0.25;entryDx=0;entryDy=0;strokeWidth=4;fontSize=16;labelBackgroundColor=none;fontColor=default;" parent="1" source="j06E-8KvQfreE3FbZCGw-63" target="j06E-8KvQfreE3FbZCGw-59" edge="1">
          <mxGeometry width="50" height="50" relative="1" as="geometry">
            <mxPoint x="540" y="500" as="sourcePoint" />
            <mxPoint x="590" y="450" as="targetPoint" />
          </mxGeometry>
        </mxCell>
        <mxCell id="j06E-8KvQfreE3FbZCGw-73" value="G" style="endArrow=classic;html=1;rounded=0;exitX=0.25;exitY=1;exitDx=0;exitDy=0;entryX=0.25;entryY=0;entryDx=0;entryDy=0;strokeWidth=4;fontSize=16;labelBackgroundColor=none;fontColor=default;" parent="1" source="j06E-8KvQfreE3FbZCGw-59" target="j06E-8KvQfreE3FbZCGw-60" edge="1">
          <mxGeometry width="50" height="50" relative="1" as="geometry">
            <mxPoint x="410" y="500" as="sourcePoint" />
            <mxPoint x="460" y="450" as="targetPoint" />
          </mxGeometry>
        </mxCell>
        <mxCell id="j06E-8KvQfreE3FbZCGw-74" value="K" style="endArrow=classic;html=1;rounded=0;exitX=0;exitY=0.75;exitDx=0;exitDy=0;entryX=1;entryY=0.75;entryDx=0;entryDy=0;strokeWidth=4;fontSize=16;labelBackgroundColor=none;fontColor=default;" parent="1" source="j06E-8KvQfreE3FbZCGw-59" target="j06E-8KvQfreE3FbZCGw-63" edge="1">
          <mxGeometry width="50" height="50" relative="1" as="geometry">
            <mxPoint x="640" y="670" as="sourcePoint" />
            <mxPoint x="690" y="620" as="targetPoint" />
          </mxGeometry>
        </mxCell>
        <mxCell id="j06E-8KvQfreE3FbZCGw-75" value="J" style="endArrow=classic;html=1;rounded=0;exitX=0.75;exitY=0;exitDx=0;exitDy=0;entryX=0.75;entryY=1;entryDx=0;entryDy=0;strokeWidth=4;fontSize=16;labelBackgroundColor=none;fontColor=default;" parent="1" source="j06E-8KvQfreE3FbZCGw-60" target="j06E-8KvQfreE3FbZCGw-59" edge="1">
          <mxGeometry width="50" height="50" relative="1" as="geometry">
            <mxPoint x="660" y="400" as="sourcePoint" />
            <mxPoint x="710" y="350" as="targetPoint" />
          </mxGeometry>
        </mxCell>
        <mxCell id="j06E-8KvQfreE3FbZCGw-76" value="H" style="endArrow=classic;html=1;rounded=0;exitX=1.001;exitY=0.364;exitDx=0;exitDy=0;entryX=0.07;entryY=0.4;entryDx=0;entryDy=0;entryPerimeter=0;exitPerimeter=0;fontSize=16;labelBackgroundColor=none;fontColor=default;" parent="1" source="j06E-8KvQfreE3FbZCGw-60" target="j06E-8KvQfreE3FbZCGw-61" edge="1">
          <mxGeometry width="50" height="50" relative="1" as="geometry">
            <mxPoint x="660" y="260" as="sourcePoint" />
            <mxPoint x="710" y="210" as="targetPoint" />
          </mxGeometry>
        </mxCell>
        <mxCell id="j06E-8KvQfreE3FbZCGw-77" value="I" style="endArrow=classic;html=1;rounded=0;exitX=0.13;exitY=0.77;exitDx=0;exitDy=0;exitPerimeter=0;entryX=1;entryY=0.75;entryDx=0;entryDy=0;fontSize=16;labelBackgroundColor=none;fontColor=default;" parent="1" source="j06E-8KvQfreE3FbZCGw-61" target="j06E-8KvQfreE3FbZCGw-60" edge="1">
          <mxGeometry width="50" height="50" relative="1" as="geometry">
            <mxPoint x="660" y="260" as="sourcePoint" />
            <mxPoint x="710" y="210" as="targetPoint" />
          </mxGeometry>
        </mxCell>
        <mxCell id="j06E-8KvQfreE3FbZCGw-82" value="&lt;span style=&quot;font-size: 11px; text-wrap: nowrap; background-color: rgb(255, 255, 255);&quot;&gt;ConversationNotificationBus::Events::OnNewMessage&lt;/span&gt;" style="whiteSpace=wrap;html=1;shape=partialRectangle;top=0;left=0;bottom=1;right=0;points=[[0,1],[1,1]];fillColor=none;align=center;verticalAlign=bottom;routingCenterY=0.5;snapToPoint=1;recursiveResize=0;autosize=1;treeFolding=1;treeMoving=1;newEdgeStyle={&quot;edgeStyle&quot;:&quot;entityRelationEdgeStyle&quot;,&quot;startArrow&quot;:&quot;none&quot;,&quot;endArrow&quot;:&quot;none&quot;,&quot;segment&quot;:10,&quot;curved&quot;:1,&quot;sourcePerimeterSpacing&quot;:0,&quot;targetPerimeterSpacing&quot;:0};labelBackgroundColor=none;" parent="1" vertex="1">
          <mxGeometry x="410" y="30" width="310" height="30" as="geometry" />
        </mxCell>
        <mxCell id="j06E-8KvQfreE3FbZCGw-83" value="" style="edgeStyle=entityRelationEdgeStyle;startArrow=none;endArrow=none;segment=10;curved=1;sourcePerimeterSpacing=0;targetPerimeterSpacing=0;rounded=0;labelBackgroundColor=none;fontColor=default;" parent="1" target="j06E-8KvQfreE3FbZCGw-82" edge="1">
          <mxGeometry relative="1" as="geometry">
            <mxPoint x="360" y="100" as="sourcePoint" />
          </mxGeometry>
        </mxCell>
        <mxCell id="j06E-8KvQfreE3FbZCGw-84" value="&lt;span style=&quot;font-size: 11px; text-wrap: nowrap; background-color: rgb(255, 255, 255);&quot;&gt;AIAgentRequestBus::Events::SendPrompt&lt;/span&gt;" style="whiteSpace=wrap;html=1;shape=partialRectangle;top=0;left=0;bottom=1;right=0;points=[[0,1],[1,1]];fillColor=none;align=center;verticalAlign=bottom;routingCenterY=0.5;snapToPoint=1;recursiveResize=0;autosize=1;treeFolding=1;treeMoving=1;newEdgeStyle={&quot;edgeStyle&quot;:&quot;entityRelationEdgeStyle&quot;,&quot;startArrow&quot;:&quot;none&quot;,&quot;endArrow&quot;:&quot;none&quot;,&quot;segment&quot;:10,&quot;curved&quot;:1,&quot;sourcePerimeterSpacing&quot;:0,&quot;targetPerimeterSpacing&quot;:0};labelBackgroundColor=none;" parent="1" vertex="1">
          <mxGeometry x="840" y="30" width="250" height="30" as="geometry" />
        </mxCell>
        <mxCell id="j06E-8KvQfreE3FbZCGw-85" value="" style="edgeStyle=entityRelationEdgeStyle;startArrow=none;endArrow=none;segment=10;curved=1;sourcePerimeterSpacing=0;targetPerimeterSpacing=0;rounded=0;labelBackgroundColor=none;fontColor=default;" parent="1" target="j06E-8KvQfreE3FbZCGw-84" edge="1">
          <mxGeometry relative="1" as="geometry">
            <mxPoint x="790" y="100" as="sourcePoint" />
          </mxGeometry>
        </mxCell>
        <mxCell id="j06E-8KvQfreE3FbZCGw-88" value="&lt;span style=&quot;font-size: 11px; text-wrap: nowrap; background-color: rgb(255, 255, 255);&quot;&gt;ConversationNotificationBus::Events::OnFeatureResponse&lt;/span&gt;" style="whiteSpace=wrap;html=1;shape=partialRectangle;top=0;left=0;bottom=1;right=0;points=[[0,1],[1,1]];fillColor=none;align=center;verticalAlign=bottom;routingCenterY=0.5;snapToPoint=1;recursiveResize=0;autosize=1;treeFolding=1;treeMoving=1;newEdgeStyle={&quot;edgeStyle&quot;:&quot;entityRelationEdgeStyle&quot;,&quot;startArrow&quot;:&quot;none&quot;,&quot;endArrow&quot;:&quot;none&quot;,&quot;segment&quot;:10,&quot;curved&quot;:1,&quot;sourcePerimeterSpacing&quot;:0,&quot;targetPerimeterSpacing&quot;:0};labelBackgroundColor=none;" parent="1" vertex="1">
          <mxGeometry x="60" y="160" width="330" height="30" as="geometry" />
        </mxCell>
        <mxCell id="j06E-8KvQfreE3FbZCGw-89" value="" style="edgeStyle=entityRelationEdgeStyle;startArrow=none;endArrow=none;segment=10;curved=1;sourcePerimeterSpacing=0;targetPerimeterSpacing=0;rounded=0;labelBackgroundColor=none;fontColor=default;" parent="1" edge="1">
          <mxGeometry relative="1" as="geometry">
            <mxPoint x="390" y="190" as="sourcePoint" />
            <mxPoint x="440" y="140" as="targetPoint" />
            <Array as="points">
              <mxPoint x="720" y="180" />
            </Array>
          </mxGeometry>
        </mxCell>
        <mxCell id="j06E-8KvQfreE3FbZCGw-90" value="&lt;span style=&quot;font-size: 11px; text-wrap: nowrap; background-color: rgb(255, 255, 255);&quot;&gt;AIAgentNotificationBus::Events::OnAIResponse&lt;/span&gt;" style="whiteSpace=wrap;html=1;shape=partialRectangle;top=0;left=0;bottom=1;right=0;points=[[0,1],[1,1]];fillColor=none;align=center;verticalAlign=bottom;routingCenterY=0.5;snapToPoint=1;recursiveResize=0;autosize=1;treeFolding=1;treeMoving=1;newEdgeStyle={&quot;edgeStyle&quot;:&quot;entityRelationEdgeStyle&quot;,&quot;startArrow&quot;:&quot;none&quot;,&quot;endArrow&quot;:&quot;none&quot;,&quot;segment&quot;:10,&quot;curved&quot;:1,&quot;sourcePerimeterSpacing&quot;:0,&quot;targetPerimeterSpacing&quot;:0};labelBackgroundColor=none;" parent="1" vertex="1">
          <mxGeometry x="510" y="160" width="270" height="30" as="geometry" />
        </mxCell>
        <mxCell id="j06E-8KvQfreE3FbZCGw-91" value="" style="edgeStyle=entityRelationEdgeStyle;startArrow=none;endArrow=none;segment=10;curved=1;sourcePerimeterSpacing=0;targetPerimeterSpacing=0;rounded=0;exitX=1;exitY=1;exitDx=0;exitDy=0;labelBackgroundColor=none;fontColor=default;" parent="1" source="j06E-8KvQfreE3FbZCGw-90" edge="1">
          <mxGeometry relative="1" as="geometry">
            <mxPoint x="795" y="190" as="sourcePoint" />
            <mxPoint x="835" y="140" as="targetPoint" />
            <Array as="points">
              <mxPoint x="1125" y="180" />
              <mxPoint x="1215" y="170" />
            </Array>
          </mxGeometry>
        </mxCell>
        <mxCell id="G9gYJNh-_6hGKrOHPz0n-2" value="&lt;font style=&quot;font-size: 20px;&quot;&gt;&lt;u&gt;Gen AI Framework&lt;/u&gt;&lt;/font&gt;" style="rounded=0;whiteSpace=wrap;html=1;verticalAlign=top;labelBackgroundColor=none;" vertex="1" parent="1">
          <mxGeometry x="40" y="600" width="840" height="230" as="geometry" />
        </mxCell>
        <mxCell id="G9gYJNh-_6hGKrOHPz0n-5" value="&lt;span style=&quot;font-size: 16px;&quot;&gt;AI Assistant&lt;/span&gt;" style="rounded=0;whiteSpace=wrap;html=1;labelBackgroundColor=none;" vertex="1" parent="1">
          <mxGeometry x="60" y="940" width="320" height="40" as="geometry" />
        </mxCell>
        <mxCell id="G9gYJNh-_6hGKrOHPz0n-6" value="&lt;span style=&quot;font-size: 16px;&quot;&gt;Scene Generation&lt;/span&gt;" style="rounded=0;whiteSpace=wrap;html=1;labelBackgroundColor=none;" vertex="1" parent="1">
          <mxGeometry x="60" y="1060" width="320" height="40" as="geometry" />
        </mxCell>
        <mxCell id="G9gYJNh-_6hGKrOHPz0n-7" value="&lt;span style=&quot;font-size: 16px;&quot;&gt;Character Control&lt;/span&gt;" style="rounded=0;whiteSpace=wrap;html=1;labelBackgroundColor=none;" vertex="1" parent="1">
          <mxGeometry x="60" y="1000" width="320" height="40" as="geometry" />
        </mxCell>
        <mxCell id="G9gYJNh-_6hGKrOHPz0n-8" value="&lt;span style=&quot;font-size: 16px;&quot;&gt;...&lt;/span&gt;" style="rounded=0;whiteSpace=wrap;html=1;labelBackgroundColor=none;" vertex="1" parent="1">
          <mxGeometry x="60" y="1120" width="320" height="40" as="geometry" />
        </mxCell>
        <mxCell id="G9gYJNh-_6hGKrOHPz0n-9" value="&lt;span style=&quot;font-size: 16px;&quot;&gt;Amazon Bedrock&lt;/span&gt;" style="rounded=0;whiteSpace=wrap;html=1;labelBackgroundColor=none;" vertex="1" parent="1">
          <mxGeometry x="540" y="940" width="320" height="40" as="geometry" />
        </mxCell>
        <mxCell id="G9gYJNh-_6hGKrOHPz0n-10" value="&lt;span style=&quot;font-size: 16px;&quot;&gt;Anthropic&lt;/span&gt;" style="rounded=0;whiteSpace=wrap;html=1;labelBackgroundColor=none;" vertex="1" parent="1">
          <mxGeometry x="540" y="1000" width="320" height="40" as="geometry" />
        </mxCell>
        <mxCell id="G9gYJNh-_6hGKrOHPz0n-11" value="&lt;span style=&quot;font-size: 16px;&quot;&gt;OpenAI&lt;/span&gt;" style="rounded=0;whiteSpace=wrap;html=1;labelBackgroundColor=none;" vertex="1" parent="1">
          <mxGeometry x="540" y="1060" width="320" height="40" as="geometry" />
        </mxCell>
        <mxCell id="G9gYJNh-_6hGKrOHPz0n-13" value="&lt;span style=&quot;font-size: 16px;&quot;&gt;...&lt;/span&gt;" style="rounded=0;whiteSpace=wrap;html=1;labelBackgroundColor=none;" vertex="1" parent="1">
          <mxGeometry x="540" y="1120" width="320" height="40" as="geometry" />
        </mxCell>
        <mxCell id="G9gYJNh-_6hGKrOHPz0n-14" value="&lt;span style=&quot;font-size: 16px;&quot;&gt;User Interface&lt;/span&gt;" style="rounded=0;whiteSpace=wrap;html=1;labelBackgroundColor=none;" vertex="1" parent="1">
          <mxGeometry x="60" y="640" width="800" height="40" as="geometry" />
        </mxCell>
        <mxCell id="G9gYJNh-_6hGKrOHPz0n-15" value="&lt;span style=&quot;font-size: 16px;&quot;&gt;Vendor System&lt;/span&gt;" style="rounded=0;whiteSpace=wrap;html=1;labelBackgroundColor=none;" vertex="1" parent="1">
          <mxGeometry x="540" y="700" width="320" height="40" as="geometry" />
        </mxCell>
        <mxCell id="G9gYJNh-_6hGKrOHPz0n-16" value="&lt;span style=&quot;font-size: 16px;&quot;&gt;Feature System&lt;/span&gt;" style="rounded=0;whiteSpace=wrap;html=1;labelBackgroundColor=none;" vertex="1" parent="1">
          <mxGeometry x="60" y="700" width="320" height="40" as="geometry" />
        </mxCell>
        <mxCell id="G9gYJNh-_6hGKrOHPz0n-17" value="&lt;span style=&quot;font-size: 16px;&quot;&gt;Vendor Communication Interfaces&lt;/span&gt;" style="rounded=0;whiteSpace=wrap;html=1;labelBackgroundColor=none;" vertex="1" parent="1">
          <mxGeometry x="540" y="760" width="320" height="40" as="geometry" />
        </mxCell>
        <mxCell id="G9gYJNh-_6hGKrOHPz0n-18" value="&lt;span style=&quot;font-size: 16px;&quot;&gt;Feature Communication Interfaces&lt;/span&gt;" style="rounded=0;whiteSpace=wrap;html=1;labelBackgroundColor=none;" vertex="1" parent="1">
          <mxGeometry x="60" y="760" width="320" height="40" as="geometry" />
        </mxCell>
        <mxCell id="G9gYJNh-_6hGKrOHPz0n-20" value="" style="shape=flexArrow;endArrow=classic;startArrow=classic;html=1;rounded=0;exitX=0.5;exitY=0;exitDx=0;exitDy=0;entryX=0.5;entryY=1;entryDx=0;entryDy=0;" edge="1" parent="1" target="G9gYJNh-_6hGKrOHPz0n-17">
          <mxGeometry width="100" height="100" relative="1" as="geometry">
            <mxPoint x="700" y="880" as="sourcePoint" />
            <mxPoint x="880" y="720" as="targetPoint" />
          </mxGeometry>
        </mxCell>
        <mxCell id="G9gYJNh-_6hGKrOHPz0n-21" value="" style="shape=flexArrow;endArrow=classic;startArrow=classic;html=1;rounded=0;exitX=0.5;exitY=0;exitDx=0;exitDy=0;entryX=0.5;entryY=1;entryDx=0;entryDy=0;" edge="1" parent="1" target="G9gYJNh-_6hGKrOHPz0n-18">
          <mxGeometry width="100" height="100" relative="1" as="geometry">
            <mxPoint x="220" y="880" as="sourcePoint" />
            <mxPoint x="219.5" y="810" as="targetPoint" />
          </mxGeometry>
        </mxCell>
      </root>
    </mxGraphModel>
  </diagram>
</mxfile>
